<svg xmlns="http://www.w3.org/2000/svg" version="1.2" viewBox="0 0 1000 1000" width="1000" height="1000">
	<title>10410823</title>
	<style>
		.s0 { fill: #ffffff } 
	</style>
	<g id="BACKGROUND">
	</g>
	<g id="OBJECTS">
		<g id="&lt;Group&gt;">
		</g>
		<g id="&lt;Group&gt;">
			<g id="&lt;Group&gt;">
			</g>
			<g id="&lt;Group&gt;">
			</g>
			<g id="&lt;Group&gt;">
			</g>
		</g>
		<g id="&lt;Group&gt;">
			<g id="&lt;Group&gt;">
			</g>
			<g id="&lt;Group&gt;">
			</g>
			<g id="&lt;Group&gt;">
			</g>
			<g id="&lt;Group&gt;">
			</g>
		</g>
		<g id="&lt;Group&gt;">
		</g>
		<g id="&lt;Group&gt;">
		</g>
		<g id="&lt;Group&gt;">
			<path id="&lt;Path&gt;" class="s0" d="m728.2 454c-18.4 0-35.1 3.5-47.3 9-21 9.6-43.4 15.7-66.4 15.7-15.5 0-29.1-9.8-34.9-24.2q-0.3-0.8-0.6-1.5c-6.1-14.4-3.6-31 7.4-42.1 16.3-16.3 36.5-27.8 58-35.8 12.7-4.7 26.9-14.1 39.9-27.1 26.7-26.7 38.1-58.6 25.5-71.2-12.6-12.6-44.5-1.2-71.2 25.5-13 13-22.3 27.3-27.1 39.9-8 21.6-19.5 41.7-35.8 58-11.1 11-27.6 13.5-42.1 7.4q-0.7-0.3-1.5-0.6c-14.4-5.8-24.2-19.3-24.2-34.9 0-23 6.1-45.4 15.7-66.4 5.6-12.2 9-28.9 9-47.3 0-37.8-14.5-68.4-32.3-68.4-17.8 0-32.3 30.6-32.3 68.4 0 18.4 3.5 35.1 9 47.3 9.6 21 15.7 43.4 15.7 66.4 0 15.6-9.8 29.1-24.2 34.9q-0.8 0.3-1.5 0.6c-14.4 6.1-31 3.6-42.1-7.4-16.3-16.3-27.7-36.4-35.8-58-4.7-12.6-14.1-26.9-27.1-39.9-26.7-26.7-58.6-38.1-71.2-25.5-12.6 12.6-1.2 44.5 25.5 71.2 13 13 27.3 22.4 39.9 27.1 21.6 8 41.7 19.5 58 35.8 11 11.1 13.5 27.7 7.4 42.1q-0.3 0.7-0.6 1.5c-5.8 14.4-19.3 24.2-34.9 24.2-23 0-45.4-6.1-66.3-15.6-12.3-5.6-29-9.1-47.4-9.1-37.8 0-68.4 14.5-68.4 32.3 0 17.8 30.6 32.3 68.4 32.3 18.4 0 35.1-3.4 47.4-9 20.9-9.6 43.3-15.7 66.3-15.7 15.6 0 29.1 9.8 34.9 24.2q0.3 0.8 0.6 1.6c6.1 14.4 3.6 30.9-7.4 42-16.3 16.3-36.4 27.8-58 35.8-12.6 4.8-26.9 14.1-39.9 27.1-26.7 26.7-38.1 58.6-25.5 71.2 12.6 12.6 44.5 1.2 71.2-25.5 13-13 22.4-27.2 27.1-39.9 8.1-21.5 19.5-41.7 35.8-58 11.1-11 27.7-13.5 42.1-7.4q0.7 0.3 1.5 0.6c14.4 5.8 24.2 19.4 24.2 34.9 0 23-6.1 45.4-15.7 66.4-5.5 12.2-9 28.9-9 47.3 0 37.8 14.5 68.4 32.3 68.4 17.8 0 32.3-30.6 32.3-68.4 0-18.4-3.4-35.1-9-47.3-9.6-21-15.7-43.4-15.7-66.4 0-15.5 9.8-29.1 24.2-34.9q0.8-0.3 1.5-0.6c14.5-6.1 31-3.6 42.1 7.4 16.3 16.3 27.8 36.5 35.8 58 4.8 12.7 14.1 26.9 27.1 39.9 26.7 26.7 58.6 38.1 71.2 25.5 12.6-12.6 1.2-44.5-25.5-71.2-13-13-27.2-22.3-39.9-27.1-21.5-8-41.7-19.5-58-35.8-11-11.1-13.5-27.6-7.4-42q0.3-0.8 0.6-1.6c5.8-14.4 19.4-24.2 34.9-24.2 23 0 45.4 6.1 66.4 15.7 12.2 5.6 28.9 9 47.3 9 37.8 0 68.4-14.5 68.4-32.3 0-17.8-30.6-32.3-68.4-32.3z" fill="#000000"/>
		</g>
		<g id="&lt;Group&gt;">
			<g id="&lt;Group&gt;">
			</g>
			<g id="&lt;Group&gt;">
			</g>
		</g>
		<g id="&lt;Group&gt;">
		</g>
		<g id="&lt;Group&gt;">
			<g id="&lt;Group&gt;">
			</g>
			<g id="&lt;Group&gt;">
			</g>
			<g id="&lt;Group&gt;">
			</g>
			<g id="&lt;Group&gt;">
			</g>
			<g id="&lt;Group&gt;">
			</g>
			<g id="&lt;Group&gt;">
			</g>
		</g>
		<g id="&lt;Group&gt;">
		</g>
		<g id="&lt;Group&gt;">
		</g>
		<g id="&lt;Group&gt;">
			<g id="&lt;Group&gt;">
			</g>
			<g id="&lt;Group&gt;">
			</g>
			<g id="&lt;Group&gt;">
			</g>
		</g>
		<g id="&lt;Group&gt;">
			<g id="&lt;Group&gt;">
			</g>
			<g id="&lt;Group&gt;">
			</g>
			<g id="&lt;Group&gt;">
			</g>
			<g id="&lt;Group&gt;">
			</g>
			<g id="&lt;Group&gt;">
			</g>
			<g id="&lt;Group&gt;">
			</g>
			<g id="&lt;Group&gt;">
			</g>
			<g id="&lt;Group&gt;">
			</g>
			<g id="&lt;Group&gt;">
			</g>
			<g id="&lt;Group&gt;">
			</g>
			<g id="&lt;Group&gt;">
			</g>
			<g id="&lt;Group&gt;">
			</g>
			<g id="&lt;Group&gt;">
			</g>
			<g id="&lt;Group&gt;">
			</g>
			<g id="&lt;Group&gt;">
			</g>
			<g id="&lt;Group&gt;">
			</g>
			<g id="&lt;Group&gt;">
			</g>
		</g>
	</g>
</svg>